<?xml version="1.0" encoding="UTF-8"?>
<svg version="1.1" xmlns="http://www.w3.org/2000/svg" width="30" height="30">
<path d="M0 0 C3.5625 1.5625 3.5625 1.5625 6 4 C6.875 7.75 6.875 7.75 7 11 C4.25 11.25 4.25 11.25 1 11 C-0.33333333 9.66666667 -1.66666667 8.33333333 -3 7 C-6.3321498 7.19198522 -6.3321498 7.19198522 -9 9 C-9.23819228 11.29615554 -9.23819228 11.29615554 -9.25 13.9375 C-9.27578125 14.83339844 -9.3015625 15.72929687 -9.328125 16.65234375 C-9.21984375 17.42707031 -9.1115625 18.20179687 -9 19 C-6.24104365 21.29637779 -6.24104365 21.29637779 -3.4375 20.75 C-0.84999433 20.16191948 -0.84999433 20.16191948 1 18 C4.125 17.875 4.125 17.875 7 18 C6.39053254 23.4852071 6.39053254 23.4852071 4.625 25.8125 C0.59561939 28.75704737 -4.23903317 28.46100911 -9 28 C-13.27443772 26.23447138 -14.94721566 24.07673744 -17 20 C-17.3984375 17.0625 -17.3984375 17.0625 -17.375 14 C-17.38273437 12.989375 -17.39046875 11.97875 -17.3984375 10.9375 C-16.82023476 6.67467196 -15.21388978 4.1509287 -12.1171875 1.21484375 C-8.26589188 -0.99503252 -4.29551565 -0.59528406 0 0 Z M-13 5 C-14.90644098 8.05561969 -15.2718013 10.42458668 -15.25 14 C-15.25515625 14.845625 -15.2603125 15.69125 -15.265625 16.5625 C-14.98025415 19.18119719 -14.38832128 20.77481607 -13 23 C-10.13639535 25.29088372 -8.20759371 25.96980455 -4.5625 26.5 C0.11941359 25.84288932 1.66212868 24.25645983 5 21 C4.01 20.67 3.02 20.34 2 20 C1.4740625 20.7425 1.4740625 20.7425 0.9375 21.5 C-2.02552179 23.79395236 -4.37042697 23.38888282 -8 23 C-10.0851971 21.43732301 -10.87875535 20.43452782 -11.58203125 17.9140625 C-12.37828291 10.0055291 -12.37828291 10.0055291 -10 6 C-6.90826248 4.45413124 -4.40570448 4.70640479 -1 5 C1.4375 7 1.4375 7 3 9 C3.66 8.67 4.32 8.34 5 8 C2.45395403 4.47618313 2.45395403 4.47618313 -1 2 C-5.97067782 1.6248545 -9.05151502 1.84121201 -13 5 Z " fill="#000000" transform="translate(20,1)"/>
</svg>
